<mxfile host="app.diagrams.net" modified="2023-11-22T01:53:03.601Z" agent="Mozilla/5.0 (Macintosh; Intel Mac OS X 10_15_7) AppleWebKit/537.36 (KHTML, like Gecko) Chrome/112.0.0.0 Safari/537.36" version="21.5.2" etag="SdkunPgQQgidZw9CdnJB" type="github">
  <diagram name="第 1 页" id="TomB1i7pbbGYjfmcgg8t">
    <mxGraphModel>
      <root>
        <mxCell id="0" />
        <mxCell id="1" parent="0" />
      </root>
    </mxGraphModel>
  </diagram>
</mxfile>
